<?xml version="1.0" encoding="UTF-8" standalone="no"?>
<!-- Created with Inkscape (http://www.inkscape.org/) -->

<svg
   xmlns:dc="http://purl.org/dc/elements/1.1/"
   xmlns:cc="http://creativecommons.org/ns#"
   xmlns:rdf="http://www.w3.org/1999/02/22-rdf-syntax-ns#"
   xmlns:svg="http://www.w3.org/2000/svg"
   xmlns="http://www.w3.org/2000/svg"
   xmlns:sodipodi="http://sodipodi.sourceforge.net/DTD/sodipodi-0.dtd"
   xmlns:inkscape="http://www.inkscape.org/namespaces/inkscape"
   width="168.49988mm"
   height="71.620331mm"
   viewBox="0 0 168.49988 71.620331"
   version="1.1"
   id="svg8"
   inkscape:version="0.92.3 (2405546, 2018-03-11)"
   sodipodi:docname="CastroBlack Logo.svg">
  <defs
     id="defs2" />
  <sodipodi:namedview
     id="base"
     pagecolor="#ffffff"
     bordercolor="#666666"
     borderopacity="1.0"
     inkscape:pageopacity="0.0"
     inkscape:pageshadow="2"
     inkscape:zoom="1.5530247"
     inkscape:cx="311.35606"
     inkscape:cy="217.7441"
     inkscape:document-units="mm"
     inkscape:current-layer="layer1"
     showgrid="false"
     inkscape:window-width="1920"
     inkscape:window-height="1001"
     inkscape:window-x="-9"
     inkscape:window-y="-9"
     inkscape:window-maximized="1"
     fit-margin-top="0"
     fit-margin-left="0"
     fit-margin-right="0"
     fit-margin-bottom="0" />
  <metadata
     id="metadata5">
    <rdf:RDF>
      <cc:Work
         rdf:about="">
        <dc:format>image/svg+xml</dc:format>
        <dc:type
           rdf:resource="http://purl.org/dc/dcmitype/StillImage" />
        <dc:title></dc:title>
      </cc:Work>
    </rdf:RDF>
  </metadata>
  <g
     inkscape:label="Layer 1"
     inkscape:groupmode="layer"
     id="layer1"
     transform="translate(177.78863,-182.47028)">
    <path
       style="fill:#000000;stroke-width:0.26458332"
       d="m -151.65243,253.58011 c -0.3223,-0.60223 -0.25519,-1.36521 0.57978,-6.59151 2.04072,-12.77336 9.59484,-35.62632 16.22362,-49.08021 2.98924,-6.06701 5.10828,-9.48451 7.44756,-12.01115 2.0794,-2.24595 3.53451,-3.16369 5.35869,-3.37973 2.58895,-0.30663 3.83598,0.87749 3.80908,3.61692 -0.0109,1.10932 -0.49849,2.83877 -2.05138,7.27604 -3.76192,10.74935 -5.37423,15.33849 -5.79825,16.50358 -0.23173,0.63676 -0.42134,1.18768 -0.42134,1.22427 0,0.0366 0.55203,0.004 1.22673,-0.0717 1.08857,-0.1227 1.42378,-0.33798 2.97656,-1.91162 3.16791,-3.21047 6.68677,-4.3193 13.80396,-4.34978 4.07354,-0.0174 4.13308,-0.009 5.68855,0.78208 1.70211,0.86594 3.2917,2.79405 3.2917,3.9927 0,0.75119 0.13491,0.74433 -3.84745,0.19554 -1.7402,-0.2398 -4.71182,-0.44784 -6.60359,-0.46229 -3.20689,-0.0245 -3.52013,0.0187 -4.63021,0.63842 -1.33656,0.74619 -1.64993,1.57666 -0.90538,2.39938 0.53365,0.58968 3.42857,1.55395 9.81436,3.26907 5.4806,1.472 7.43349,2.12651 8.07368,2.70586 0.2657,0.24046 0.5178,0.38831 0.56023,0.32857 0.0424,-0.0597 0.44535,-1.23971 0.89539,-2.62216 0.45005,-1.38245 2.21147,-6.71941 3.91428,-11.85991 1.70281,-5.14051 3.02121,-9.42119 2.92977,-9.51262 -0.0914,-0.0914 -2.86917,-0.23135 -6.17275,-0.31092 -5.38059,-0.1296 -6.0155,-0.19167 -6.09283,-0.59567 -0.13023,-0.68033 2.80319,-2.72684 4.48789,-3.13099 0.99241,-0.23807 2.66416,-0.2844 5.89698,-0.16342 l 4.51192,0.16885 1.19063,-2.1335 c 0.65484,-1.17343 1.40471,-2.25119 1.66637,-2.39503 0.31847,-0.17507 0.95259,-0.16253 1.91823,0.0379 1.27439,0.26457 1.44248,0.37523 1.44248,0.94971 0,0.35763 -0.35626,1.356 -0.7917,2.21859 l -0.7917,1.56835 0.85785,0.12265 c 6.216033,0.88874 8.103856,1.27889 9.433286,1.94955 1.680298,0.84766 3.299431,2.27667 3.137316,2.76892 -0.172781,0.52465 -2.327484,0.55617 -6.288799,0.092 -1.964532,-0.2302 -4.806383,-0.44683 -6.315223,-0.48141 l -2.74335,-0.0629 -2.22438,5.68854 c -5.87062,15.01327 -11.57453,31.62334 -13.55986,39.48697 -0.74792,2.96241 -0.85973,3.19901 -2.40647,5.0919 -2.55791,3.13036 -4.23613,4.15321 -4.23613,2.58187 0,-0.67732 1.79628,-6.40154 6.28894,-20.04095 1.00659,-3.05594 1.81334,-5.58182 1.79277,-5.61308 -0.0206,-0.0313 -1.40088,0.42422 -3.06737,1.01219 -5.87431,2.07257 -13.95959,3.80605 -19.21955,4.12067 -2.55573,0.15287 -2.77135,0.1243 -4.14909,-0.54977 -1.48026,-0.72422 -3.07695,-2.25136 -3.07695,-2.94292 0,-0.54232 0.46004,-0.59861 7.40833,-0.90645 3.41974,-0.15151 7.02535,-0.4497 8.01246,-0.66264 1.88225,-0.40605 3.77479,-1.30689 4.0048,-1.90627 0.41364,-1.07793 -2.5788,-2.20184 -9.74583,-3.66036 -4.06838,-0.82793 -4.55354,-0.98646 -5.33393,-1.74285 -0.82851,-0.80302 -0.91408,-0.82561 -2.45165,-0.64716 l -1.59318,0.18491 -0.52543,2.29124 c -0.28899,1.26018 -0.68136,3.06515 -0.87193,4.01103 -0.32922,1.63405 -0.45233,1.82624 -2.46934,3.85477 -2.06461,2.07641 -2.93693,2.62689 -3.55619,2.24416 -0.21749,-0.13441 -0.0357,-1.57907 0.65326,-5.19309 0.525,-2.75378 1.02274,-5.40965 1.10608,-5.90192 l 0.15152,-0.89503 -1.82625,0.18749 c -1.00445,0.10312 -2.09286,0.25058 -2.4187,0.32768 -0.69964,0.16557 -0.62569,-0.0652 -4.05451,12.65198 -1.33401,4.94771 -3.1736,11.76972 -4.08797,15.16001 -1.73826,6.44509 -2.08224,7.22944 -4.15825,9.48164 -1.18629,1.28697 -1.63246,1.41706 -2.06814,0.60299 z m 19.23394,-41.94084 c 0.37765,-0.10132 0.71828,-0.56638 1.01474,-1.38545 0.47842,-1.32177 7.34167,-18.43621 8.45219,-21.07668 0.36722,-0.87312 0.67049,-2.09351 0.67395,-2.71198 0.006,-1.01226 -0.0571,-1.12448 -0.62863,-1.12448 -0.72221,0 -2.73682,2.05982 -4.37459,4.47277 -1.7459,2.57224 -4.14824,7.41432 -5.91963,11.9314 -1.589,4.05197 -2.11666,5.51032 -3.1831,8.7974 l -0.40773,1.25677 1.90216,-0.004 c 1.0462,-0.002 2.15799,-0.0722 2.47064,-0.15613 z m 119.684654,42.23418 c -0.800365,-0.11677 -2.526771,-0.71548 -3.836459,-1.33047 -7.510314,-3.52657 -37.959666,-17.4592 -46.963539,-21.48899 -11.532306,-5.16141 -20.362436,-8.93622 -20.903826,-8.93622 -0.11232,0 -0.80532,1.23067 -1.54,2.73482 l -1.33577,2.73484 -2.43381,1.64446 c -2.72609,1.84196 -3.60377,2.01649 -3.47526,0.69108 0.10948,-1.12911 0.85998,-3.36724 3.50452,-10.45104 1.27667,-3.41974 3.00221,-8.06317 3.83455,-10.31875 0.83233,-2.25557 1.59693,-4.1935 1.69912,-4.30651 0.10218,-0.113 0.77198,-0.27402 1.48845,-0.3578 1.60785,-0.18802 2.60578,0.47111 3.01519,1.99153 l 0.27008,1.00302 3.77119,0.1755 c 6.888903,0.32059 9.337103,1.57066 9.289417,4.74325 -0.04761,3.16714 -2.546942,6.27782 -6.723721,8.36836 l -2.165429,1.08383 3.14067,1.48487 c 1.72737,0.81668 4.22992,1.99453 5.561224,2.61744 l 2.420557,1.13257 -0.634193,-0.93453 c -0.951423,-1.402 -1.246714,-2.83967 -1.073719,-5.22757 0.473093,-6.53019 4.478887,-14.03024 10.690542,-20.0159 5.039706,-4.85635 8.838922,-6.93252 13.328938,-7.28391 3.569843,-0.27937 7.057384,0.95362 6.0683,2.14539 -0.179953,0.21683 -1.189529,0.39219 -2.730341,0.47425 -6.491568,0.34571 -12.069862,4.80308 -18.267978,14.59714 -1.916282,3.02805 -3.062261,5.80461 -3.559821,8.625 -0.486034,2.75506 -0.178588,4.75856 0.910458,5.93305 0.640527,0.69078 0.80672,0.73841 2.107732,0.60413 3.186369,-0.32886 7.422731,-3.24832 13.260617,-9.13848 6.971469,-7.03388 10.106019,-12.57089 8.534722,-15.07611 -0.494186,-0.78792 -0.639902,-0.86051 -1.403487,-0.69916 -1.284081,0.27132 -3.497543,1.52124 -6.08086,3.4338 -1.275117,0.94403 -2.485771,1.71643 -2.690339,1.71643 -0.798029,0 -1.208974,-0.34654 -1.208974,-1.01948 0,-1.03406 3.559627,-4.38405 6.044544,-5.68857 3.402565,-1.78626 6.55915,-1.56966 8.18136,0.56139 0.645168,0.84753 0.721315,1.16562 0.706906,2.95294 -0.01423,1.76667 -0.151307,2.30972 -1.161304,4.60106 -5.21772,11.83723 -16.141186,21.16659 -25.093897,21.43184 -0.877501,0.026 -1.576207,0.0597 -1.552681,0.0748 0.119714,0.077 17.20189,8.08539 20.283405,9.50913 3.144792,1.45298 7.788806,3.62024 14.287499,6.66768 1.091407,0.51179 4.751806,2.21044 8.134218,3.77477 3.382415,1.56433 6.454674,3.04397 6.827242,3.28809 0.6786301,0.44465 1.094689,1.11381 0.846717,1.36178 -0.2648109,0.26481 -1.952424,0.32248 -3.37276,0.11525 z m -64.73761,-36.11354 c 3.929575,-1.07698 4.582276,-1.38054 5.696254,-2.64929 1.47829,-1.68368 1.004543,-3.554 -1.102429,-4.35231 -0.800674,-0.30337 -5.416044,-0.38618 -6.742089,-0.12097 -0.77284,0.15457 -0.85627,0.31176 -2.01744,3.80126 -0.6662,2.00202 -1.21127,3.77493 -1.21127,3.9398 0,0.54281 1.96405,0.31689 5.376974,-0.61849 z m -93.756904,7.79005 c -2.21954,-0.25987 -3.57358,-0.83385 -4.85034,-2.05605 -1.86233,-1.78276 -2.15975,-3.27412 -1.10481,-5.54001 1.12133,-2.40851 4.08926,-5.14655 8.14827,-7.51714 9.43445,-5.51001 21.40738,-5.47319 25.36017,0.078 0.95411,1.33992 0.49013,1.45852 -3.66711,0.93739 -4.56375,-0.57209 -9.48394,-0.5826 -12.17855,-0.026 -3.91566,0.8088 -7.34127,2.64358 -9.81075,5.25469 -1.38946,1.46914 -1.72383,2.20812 -1.57771,3.48676 0.20092,1.7581 3.798,2.31 12.41542,1.90488 l 5.71403,-0.26862 1.82659,0.71385 c 2.23558,0.87368 4.60473,2.2476 4.60473,2.67038 0,0.17197 -0.18834,0.38493 -0.41852,0.47326 -0.59952,0.23006 -22.3928,0.13083 -24.46142,-0.11137 z"
       id="path826"
       inkscape:connector-curvature="0" />
  </g>
</svg>
